<?xml version="1.0" encoding="UTF-8" standalone="no"?> <svg id="Layer_1" data-name="Layer 1" xmlns="http://www.w3.org/2000/svg" viewBox="0 0 128 128"><defs><style>.cls-1{fill:#2e79bd;}.cls-2{fill:#2d3e50;}</style></defs><title>n</title><path class="cls-1" d="M68.11184,86.97553c-2.59954-.18329-2.10179-2.66209-1.5866-4.61012l4.356-16.47016a7.38719,7.38719,0,0,0-14.2735-3.81419c-.636,2.35531-5.7255,23.36-5.75685,23.49148-.71175,2.98422-1.563,6.79846-.25078,9.73994,1.99071,4.46183,8.03667,3.166,11.71,2.10383A29.2811,29.2811,0,0,0,69.49039,94.28a65.8774,65.8774,0,0,0,7.31215-5.78659l-.48749-4.89907C74.34673,85.16548,70.73978,87.16087,68.11184,86.97553Z"/><path class="cls-1" d="M69.86589,29.569c-5.47531-.34318-10.92135,4.579-11.13434,10.21943a8.4188,8.4188,0,0,0,1.2423,4.748c3.39939,5.50038,11.20907,4.30254,15.43118.50617C80.97768,40.03187,77.24547,30.03154,69.86589,29.569Z"/><path class="cls-2" d="M64.00043,2.57571a61.42429,61.42429,0,1,0,61.42386,61.42386A61.4936,61.4936,0,0,0,64.00043,2.57571Zm0,109.65411a48.22982,48.22982,0,1,1,48.22939-48.23025A48.28488,48.28488,0,0,1,64.00043,112.22982Z"/></svg>