<?xml version="1.0" encoding="utf-8"?>
<!-- Generator: Adobe Illustrator 18.0.0, SVG Export Plug-In . SVG Version: 6.00 Build 0)  -->
<!DOCTYPE svg PUBLIC "-//W3C//DTD SVG 1.1//EN" "http://www.w3.org/Graphics/SVG/1.1/DTD/svg11.dtd">
<svg version="1.1" id="Layer_1" xmlns="http://www.w3.org/2000/svg" xmlns:xlink="http://www.w3.org/1999/xlink" x="0px" y="0px"
	 viewBox="0 0 64 64" enable-background="new 0 0 64 64" xml:space="preserve">
<g>
	<g>
		<g>
			<path fill="#FCDA4F" d="M32,0c17.7,0,32,14.3,32,32S49.7,64,32,64S0,49.7,0,32S14.3,0,32,0z"/>
		</g>
	</g>
	<g>
		<g>
			<path fill="#F45D5D" d="M45,12h-3H25h-5c-2.2,0-4,1.8-4,4v36l13-7l13,7V18h3c1.7,0,3-1.4,3-3C48,13.3,46.7,12,45,12z"/>
		</g>
	</g>
	<g>
		<g>
			<path fill="#CE3636" d="M48,29h-6V15c0-1.7,1.3-3,3-3h0c1.7,0,3,1.3,3,3V29z"/>
		</g>
	</g>
</g>
</svg>
