<?xml version="1.0" encoding="utf-8"?>
<!-- Generator: Adobe Illustrator 18.0.0, SVG Export Plug-In . SVG Version: 6.00 Build 0)  -->
<!DOCTYPE svg PUBLIC "-//W3C//DTD SVG 1.1//EN" "http://www.w3.org/Graphics/SVG/1.1/DTD/svg11.dtd">
<svg version="1.1" id="Layer_1" xmlns="http://www.w3.org/2000/svg" xmlns:xlink="http://www.w3.org/1999/xlink" x="0px" y="0px"
	 viewBox="0 0 64 64" enable-background="new 0 0 64 64" xml:space="preserve">
<g>
	<g>
		<g>
			<path fill="#6A97CE" d="M32,0c17.7,0,32,14.3,32,32S49.7,64,32,64S0,49.7,0,32S14.3,0,32,0z"/>
		</g>
	</g>
	<g>
		<g>
			<path fill="#F4E1C6" d="M31.5,13.5c0,0,2.3-1.2,4.1,0c2.2,1.4,3,3.7,3,6.6c0,1.1-0.1,2.2-0.3,3.1S38.1,25,38,25.5h9.6
				c1.6,0,3,1.1,3.3,2.7c0.3,1.4-0.3,2.6-1.3,3.3c0.8,0.6,1.4,1.6,1.4,2.7c0,1.3-0.7,2.4-1.8,2.9c0.4,0.5,0.6,1.2,0.6,1.9
				c0,1.6-1.2,3-2.7,3.2c0.3,0.6,0.5,1.3,0.4,2c-0.2,1.6-1.7,2.8-3.3,2.8H28.6c-1.8,0-3.5-1.2-3.5-3V31.6c0-0.1,0-0.2,0-0.2h0
				l7-11.2c0.1-0.1,0.1-0.2,0.1-0.3L31.5,13.5z"/>
		</g>
	</g>
	<g>
		<g>
			<path fill="#38638E" d="M22.8,29c1.1,0,2,0.8,2.2,1.7c0,0.1,0,0.2,0,0.2v12.4V45c0,1.1-1,2-2.2,2h-7.6C14,47,13,46.1,13,45V31
				c0-1.1,1-2,2.2-2H22.8z"/>
		</g>
	</g>
	<g>
		<g>
			<circle fill="#FFFFFF" cx="20.5" cy="43.5" r="1.5"/>
		</g>
	</g>
</g>
</svg>
