<?xml version="1.0" encoding="iso-8859-1"?>
<!-- Generator: Adobe Illustrator 21.0.0, SVG Export Plug-In . SVG Version: 6.00 Build 0)  -->
<svg version="1.1" id="Capa_1" xmlns="http://www.w3.org/2000/svg" xmlns:xlink="http://www.w3.org/1999/xlink" x="0px" y="0px"
	 viewBox="0 0 512.004 512.004" style="enable-background:new 0 0 512.004 512.004;" xml:space="preserve">
<g id="XMLID_297_">
	<g id="XMLID_298_">
		<path id="XMLID_299_" style="fill:#5F9EEB;" d="M512.004,256.002c0,25.204-3.644,49.545-10.427,72.552
			c-15.898,53.895-49.063,100.402-93.092,133.096c-42.594,31.64-95.345,50.352-152.481,50.352c-141.381,0-256-114.618-256-256
			c0-70.747,28.702-134.789,75.097-181.127C121.417,28.615,185.37,0.002,256.004,0.002c53.021,0,102.274,16.123,143.13,43.726
			C467.235,89.731,512.004,167.642,512.004,256.002z"/>
		<path id="XMLID_300_" style="fill:#3A82D0;" d="M512.004,256.002c0,25.208-3.647,49.541-10.425,72.556
			c-15.896,53.889-49.068,100.401-93.097,133.089c-42.588,31.647-95.343,50.355-152.477,50.355c-5.769,0-11.497-0.196-17.173-0.567
			c50.52-3.348,97.022-21.335,135.304-49.789c44.03-32.688,77.192-79.2,93.098-133.089c6.779-23.014,10.425-47.347,10.425-72.556
			c0-88.359-44.772-166.271-112.867-212.269C328.374,19.122,285.282,3.639,238.8,0.569c5.687-0.371,11.425-0.567,17.204-0.567
			c53.023,0,102.276,16.122,143.133,43.731C467.232,89.731,512.004,167.643,512.004,256.002z"/>
		<path id="XMLID_301_" style="fill:#A0D37D;" d="M512.004,256.002c0,25.208-3.647,49.541-10.425,72.556l-27.825-27.825
			l-17.734-17.734c-1.505-1.505-3.439-2.507-5.537-2.868l-52.262-8.996c-2.098-0.361-4.032-1.363-5.537-2.868l-7.341-7.341
			c-1.932-1.932-3.017-4.552-3.017-7.284v-70.594c0-2.732,1.085-5.352,3.017-7.284l10.778-10.778
			c1.932-1.932,3.017-4.552,3.017-7.284V43.733C467.232,89.731,512.004,167.643,512.004,256.002z"/>
		<path id="XMLID_302_" style="fill:#84B75B;" d="M512.004,256.002c0,25.208-3.647,49.541-10.425,72.556l-27.825-27.825
			c2.565-14.526,3.904-29.463,3.904-44.73c0-72.473-30.112-137.91-78.52-184.475V43.733
			C467.232,89.731,512.004,167.643,512.004,256.002z"/>
		<path id="XMLID_303_" style="fill:#A0D37D;" d="M408.481,411.405v50.242c-42.577,31.637-95.312,50.345-152.426,50.355
			c-5.769,0-11.497-0.196-17.173-0.567C107.462,502.669,2.24,393.82,0.035,260.308C-1.15,187.856,27.768,122.151,75.104,74.876
			l19.718,54.661c1.597,4.44,5.82,7.407,10.549,7.407h76.615c2.967,0,5.82,1.185,7.922,3.286l33.893,33.893
			c2.112,2.102,3.286,4.955,3.286,7.932v129.978c0,2.977,1.185,5.831,3.286,7.932l27.238,27.238
			c2.102,2.102,4.955,3.276,7.922,3.276h82.033c2.977,0,5.831,1.185,7.932,3.286l49.706,49.706
			C407.307,405.574,408.481,408.428,408.481,411.405z"/>
		<path id="XMLID_304_" style="fill:#84B75B;" d="M408.481,431.02v30.627c-42.577,31.637-95.312,50.345-152.426,50.355
			c-5.769,0-11.497-0.196-17.173-0.567c50.499-3.358,96.981-21.345,135.252-49.788C386.487,452.478,397.984,442.218,408.481,431.02z
			"/>
	</g>
	<g id="XMLID_305_">
		<path id="XMLID_306_" style="fill:#EB5777;" d="M318.35,226.61c0,36.822-54.613,135.431-74.37,169.899
			c-3.113,5.431-10.939,5.431-14.052,0c-19.757-34.468-74.37-133.077-74.37-169.899c0-44.954,36.442-81.396,81.396-81.396
			S318.35,181.657,318.35,226.61z"/>
		<circle style="fill:#EBEEF2;" cx="236.954" cy="217.854" r="37.727"/>
	</g>
	<path id="XMLID_307_" style="fill:#5F9EEB;" d="M117.375,350.01H98.846c-4.267,0-7.726-3.459-7.726-7.726s3.459-7.726,7.726-7.726
		h18.529c4.267,0,7.726,3.459,7.726,7.726S121.642,350.01,117.375,350.01z"/>
	<path id="XMLID_308_" style="fill:#5F9EEB;" d="M162.566,378.639h-63.72c-4.267,0-7.726-3.459-7.726-7.726s3.459-7.726,7.726-7.726
		h63.72c4.267,0,7.726,3.459,7.726,7.726S166.833,378.639,162.566,378.639z"/>
	<path id="XMLID_309_" style="fill:#5F9EEB;" d="M162.566,400.361h-63.72c-4.267,0-7.726-3.459-7.726-7.726s3.459-7.726,7.726-7.726
		h63.72c4.267,0,7.726,3.459,7.726,7.726S166.833,400.361,162.566,400.361z"/>
</g>
<g>
</g>
<g>
</g>
<g>
</g>
<g>
</g>
<g>
</g>
<g>
</g>
<g>
</g>
<g>
</g>
<g>
</g>
<g>
</g>
<g>
</g>
<g>
</g>
<g>
</g>
<g>
</g>
<g>
</g>
</svg>
